<svg xmlns="http://www.w3.org/2000/svg" width="155" height="104.978" viewBox="-52.5 -2.5 155 104.978">
<g id="shape" stroke="rgb(0, 0, 0)" >
  <g id="path" >
    <polyline fill="none" points="100,0 99.9123,4.18757 99.6493,8.36778 99.2115,12.5333 98.5996,16.6769 97.8148,20.7912 96.8583,24.869 95.7319,28.9032 94.4376,32.8867 92.9776,36.8125 91.3545,40.6737 89.5712,44.4635 87.6307,48.1754 85.5364,51.8027 83.2921,55.3392 80.9017,58.7785 78.3693,62.1148 75.6995,65.3421 72.8969,68.4547 69.9663,71.4473 66.9131,74.3145 63.7424,77.0513 60.4599,79.653 57.0714,82.1149 53.5827,84.4328 50,86.6025 46.3296,88.6204 42.5779,90.4827 38.7516,92.1863 34.8572,93.7282 30.9017,95.1057 26.892,96.3163 22.8351,97.3579 18.7381,98.2287 14.6083,98.9272 10.4528,99.4522 6.27905,99.8027 2.09424,99.9781 -2.09424,99.9781 -6.27905,99.8027 -10.4528,99.4522 -14.6083,98.9272 -18.7381,98.2287 -22.8351,97.3579 -26.892,96.3163 -30.9017,95.1057 -34.8572,93.7282 -38.7516,92.1863 -42.5779,90.4827 -46.3296,88.6204 -50,86.6025 "/>
  </g>
</g>
</svg>
