<svg xmlns="http://www.w3.org/2000/svg" width="224.191" height="233.487" viewBox="-110.064 -110.464 224.191 233.487">
<g id="shape" fill="rgb(0, 162, 232)" >
    <g id="arrows[0]" >
      <g id="result" >
            <g id="result[0][0]" >
              <polygon points="107.866,14.0647 105.982,23.5145 103.296,32.7563 99.8237,41.7241 95.5927,50.3562 90.6346,58.5787 84.9915,66.3283 78.7055,73.5541 71.8215,80.2076 64.3918,86.2406 56.4694,91.602 48.1133,96.2553 39.3837,100.171 30.3447,103.32 21.0647,105.678 11.6097,107.22 2.04503,107.937 -7.56073,107.826 -17.1298,106.888 -26.5849,105.126 -26.3674,104.27 -26.1498,103.414 -25.9322,102.558 -25.7146,101.702 -25.4971,100.847 -25.2795,99.9906 -25.0619,99.1347 -24.8443,98.2788 -24.6267,97.4228 -24.4092,96.5669 -24.1916,95.711 -23.974,94.855 -23.7564,93.9991 -23.5388,93.1432 -23.3213,92.2872 -23.1037,91.4313 -22.8861,90.5754 -22.6685,89.7194 -22.4509,88.8635 -22.2334,88.0076 -14.3022,89.4853 -6.29658,90.2708 1.73264,90.3604 9.73481,89.7568 17.6503,88.4646 25.4158,86.4913 32.976,83.8568 40.279,80.5796 47.2728,76.6845 53.9032,72.1992 60.1183,67.1538 65.8774,61.5873 71.14,55.5388 75.8656,49.0545 80.014,42.1819 83.5523,34.9648 86.4614,27.449 88.7179,19.6905 90.2978,11.7452 91.1929,3.60387 92.0797,3.65089 92.9666,3.69791 93.8534,3.74493 94.7403,3.79195 95.6272,3.83897 96.514,3.88599 97.4009,3.933 98.2878,3.98002 99.1746,4.02704 100.061,4.07406 100.948,4.12108 101.835,4.1681 102.722,4.21512 103.609,4.26214 104.496,4.30916 105.383,4.35618 106.27,4.4032 107.156,4.45022 108.043,4.49724 108.93,4.54425 107.866,14.0647 "/>
            </g>
            <g id="result[0][1]" >
              <polygon points="-46.1688,87.6185 -43.9597,87.4485 -41.7705,87.232 -39.6042,86.9684 -37.4634,86.6577 -35.3502,86.2998 -33.2659,85.8953 -31.2116,85.4448 -29.1878,84.9494 -27.195,84.4099 -25.233,83.8251 -23.3033,83.1978 -21.4068,82.53 -19.5447,81.8227 -17.7181,81.0769 -15.9281,80.2936 -14.1758,79.4739 -12.4623,78.6188 -10.7885,77.7294 -9.15509,76.8067 -9.42238,78.9925 -9.68967,81.1784 -9.95696,83.3642 -10.2243,85.5501 -10.4915,87.7359 -10.7588,89.9218 -11.0261,92.1076 -11.2934,94.2935 -11.5607,96.4793 -11.828,98.6652 -12.0953,100.851 -12.3626,103.037 -12.6299,105.223 -12.8972,107.409 -13.1644,109.594 -13.4317,111.78 -13.699,113.966 -13.9663,116.152 -14.2336,118.338 -14.5009,120.524 -16.6686,119.17 -18.7883,117.779 -20.8595,116.352 -22.8819,114.89 -24.8552,113.394 -26.7793,111.865 -28.6541,110.305 -30.4795,108.715 -32.2553,107.097 -33.981,105.45 -35.6552,103.774 -37.278,102.073 -38.8489,100.35 -40.367,98.6048 -41.8322,96.8397 -43.2446,95.0554 -44.6054,93.253 -45.916,91.4329 -47.1786,89.5959 -48.3951,87.7423 -46.1688,87.6185 "/>
            </g>
      </g>
    </g>
    <g id="arrows[1]" >
      <g id="result" >
            <g id="result[0][0]" >
              <polygon points="-66.1135,86.3826 -73.3552,80.0259 -80.0157,73.0787 -86.046,65.5879 -91.4061,57.6076 -96.048,49.2026 -99.9378,40.4406 -103.052,31.3839 -105.373,22.0954 -106.882,12.6447 -107.564,3.10289 -107.416,-6.46036 -106.442,-15.978 -104.65,-25.3806 -102.052,-34.5965 -98.6601,-43.5557 -94.4986,-52.1974 -89.5998,-60.4609 -84.0025,-68.2787 -77.7495,-75.5863 -77.117,-74.97 -76.4846,-74.3536 -75.8521,-73.7372 -75.2196,-73.1208 -74.5871,-72.5044 -73.9547,-71.888 -73.3222,-71.2716 -72.6897,-70.6552 -72.0573,-70.0388 -71.4248,-69.4224 -70.7923,-68.806 -70.1599,-68.1896 -69.5274,-67.5732 -68.8949,-66.9568 -68.2624,-66.3404 -67.63,-65.724 -66.9975,-65.1076 -66.365,-64.4912 -65.7326,-63.8748 -65.1001,-63.2584 -70.3455,-57.1288 -75.0285,-50.5884 -79.1208,-43.6797 -82.5991,-36.4478 -85.4377,-28.9467 -87.6116,-21.2349 -89.1101,-13.3704 -89.9235,-5.4072 -90.0472,2.59718 -89.4779,10.5819 -88.216,18.4871 -86.2748,26.2579 -83.668,33.8396 -80.4152,41.1743 -76.5376,48.2033 -72.0566,54.876 -67.0022,61.1533 -61.4114,66.9867 -55.3205,72.3276 -48.7175,77.1734 -49.2016,77.9179 -49.6858,78.6625 -50.1699,79.407 -50.6541,80.1515 -51.1382,80.8961 -51.6224,81.6406 -52.1065,82.3851 -52.5907,83.1297 -53.0748,83.8742 -53.559,84.6188 -54.0431,85.3633 -54.5273,86.1078 -55.0114,86.8524 -55.4956,87.5969 -55.9797,88.3414 -56.4639,89.086 -56.948,89.8305 -57.4322,90.575 -57.9163,91.3196 -58.4005,92.0641 -66.1135,86.3826 "/>
            </g>
            <g id="result[0][1]" >
              <polygon points="-52.7954,-83.7926 -53.7528,-81.7945 -54.6598,-79.7903 -55.5148,-77.7825 -56.3161,-75.7731 -57.0628,-73.764 -57.7545,-71.7568 -58.3916,-69.7525 -58.9744,-67.7521 -59.5037,-65.7565 -59.9781,-63.765 -60.3998,-61.7801 -60.7697,-59.8038 -61.0882,-57.8375 -61.3556,-55.8827 -61.5723,-53.9409 -61.7385,-52.0135 -61.8548,-50.1021 -61.9214,-48.2078 -61.939,-46.3319 -63.6984,-47.6563 -65.4577,-48.9807 -67.2171,-50.3051 -68.9764,-51.6295 -70.7358,-52.9539 -72.4951,-54.2783 -74.2545,-55.6027 -76.0139,-56.9271 -77.7732,-58.2515 -79.5326,-59.5759 -81.2919,-60.9003 -83.0513,-62.2247 -84.8106,-63.5492 -86.57,-64.8736 -88.3293,-66.198 -90.0887,-67.5224 -91.8481,-68.8468 -93.6074,-70.1712 -95.3668,-71.4956 -97.1261,-72.82 -94.87,-74.0205 -92.6055,-75.1607 -90.3339,-76.2408 -88.0565,-77.2611 -85.7743,-78.2221 -83.4885,-79.1241 -81.2002,-79.9678 -78.9105,-80.7537 -76.6208,-81.4823 -74.3316,-82.1532 -72.043,-82.7651 -69.7588,-83.3203 -67.4809,-83.8189 -65.2107,-84.2612 -62.9495,-84.6476 -60.6981,-84.9787 -58.4567,-85.2559 -56.2252,-85.4809 -54.003,-85.6558 -51.7895,-85.7825 -52.7954,-83.7926 "/>
            </g>
      </g>
    </g>
    <g id="arrows[2]" >
      <g id="result" >
            <g id="result[0][0]" >
              <polygon points="-41.7528,-100.447 -32.6268,-103.54 -23.2802,-105.835 -13.7778,-107.312 -4.18654,-107.964 5.41332,-107.781 14.9462,-106.769 24.347,-104.938 33.5511,-102.303 42.4906,-98.8853 51.095,-94.7049 59.3029,-89.795 67.0584,-84.1926 74.3051,-77.9392 80.9876,-71.0817 87.0504,-63.6643 92.4536,-55.7395 97.1605,-47.3653 101.132,-38.609 104.334,-29.5399 103.484,-29.3003 102.634,-29.0608 101.784,-28.8213 100.934,-28.5817 100.084,-28.3422 99.2342,-28.1026 98.3841,-27.8631 97.5341,-27.6236 96.684,-27.384 95.834,-27.1445 94.9839,-26.905 94.1339,-26.6654 93.2838,-26.4259 92.4338,-26.1863 91.5837,-25.9468 90.7337,-25.7073 89.8836,-25.4677 89.0336,-25.2282 88.1835,-24.9887 87.3335,-24.7491 84.6477,-32.3566 81.3251,-39.6824 77.3881,-46.6807 72.8643,-53.309 67.7875,-59.5179 62.1958,-65.2564 56.1341,-70.4864 49.6445,-75.1724 42.7744,-79.2817 35.5747,-82.7811 28.0978,-85.6409 20.3974,-87.8451 12.528,-89.3784 4.54961,-90.2288 -3.47644,-90.3851 -11.4957,-89.8408 -19.4592,-88.6023 -27.3065,-86.6772 -34.9773,-84.0728 -42.4754,-80.7773 -42.8781,-81.5688 -43.2808,-82.3604 -43.6835,-83.1519 -44.0862,-83.9435 -44.4889,-84.735 -44.8917,-85.5266 -45.2944,-86.3182 -45.6971,-87.1097 -46.0998,-87.9013 -46.5025,-88.6928 -46.9052,-89.4844 -47.3079,-90.2759 -47.7106,-91.0675 -48.1133,-91.859 -48.5161,-92.6506 -48.9188,-93.4421 -49.3215,-94.2337 -49.7242,-95.0253 -50.1269,-95.8168 -50.5296,-96.6084 -41.7528,-100.447 "/>
            </g>
            <g id="result[0][1]" >
              <polygon points="98.9642,-3.82587 97.7125,-5.65403 96.4304,-7.44165 95.119,-9.18597 93.7795,-10.8846 92.4129,-12.5358 91.0205,-14.1385 89.6032,-15.6924 88.1622,-17.1973 86.6987,-18.6534 85.2111,-20.0601 83.7031,-21.4177 82.1765,-22.7261 80.6329,-23.9851 79.0737,-25.1941 77.5003,-26.3527 75.9143,-27.4604 74.317,-28.5168 72.7099,-29.5216 71.0941,-30.4748 73.1207,-31.3363 75.1474,-32.1977 77.174,-33.0591 79.2007,-33.9206 81.2273,-34.782 83.254,-35.6435 85.2806,-36.5049 87.3073,-37.3664 89.3339,-38.2278 91.3606,-39.0893 93.3872,-39.9507 95.4138,-40.8121 97.4405,-41.6736 99.4671,-42.535 101.494,-43.3965 103.52,-44.2579 105.547,-45.1194 107.574,-45.9808 109.6,-46.8423 111.627,-47.7037 111.539,-45.1496 111.394,-42.6184 111.193,-40.1111 110.938,-37.6286 110.629,-35.1716 110.268,-32.7411 109.854,-30.3375 109.39,-27.9617 108.876,-25.6144 108.313,-23.2965 107.698,-21.0085 107.037,-18.7528 106.33,-16.5307 105.578,-14.3435 104.782,-12.1921 103.943,-10.0768 103.062,-7.99709 102.141,-5.95202 101.182,-3.94006 100.185,-1.95979 98.9642,-3.82587 "/>
            </g>
      </g>
    </g>
</g>
</svg>
