<svg xmlns="http://www.w3.org/2000/svg" width="386.603" height="246.962" viewBox="-334.103 -52.5 386.603 246.962">
<g id="shape" >
    <g id="ss[0]" >
      <g id="a" >
        <polygon points="-5,-50 5,-50 5,50 -5,50 -5,-50 "/>
      </g>
      <g id="b" >
        <polygon points="-50,-5 50,-5 50,5 -50,5 -50,-5 "/>
      </g>
    </g>
    <g id="ss[1]" >
      <g id="a" >
        <polygon points="-50,5 -100,5.00002 -100,-4.99998 -50,-5 -50,5 "/>
      </g>
      <g id="b" >
        <polygon points="-95,3.66027 -138.301,28.6603 -143.301,20 -100,-4.99998 -95,3.66027 "/>
      </g>
    </g>
    <g id="ss[2]" >
      <g id="a" >
        <polygon points="-231.603,43.6603 -181.603,43.6603 -181.603,53.6603 -231.603,53.6603 -231.603,43.6603 "/>
      </g>
      <g id="b" >
        <polygon points="-186.603,45 -143.301,20 -138.301,28.6603 -181.603,53.6603 -186.603,45 "/>
      </g>
    </g>
    <g id="ss[3]" >
      <g id="a" >
        <polygon points="-231.603,43.6603 -231.603,53.6603 -331.603,53.6602 -331.603,43.6602 -231.603,43.6603 "/>
      </g>
      <g id="b" >
        <polygon points="-276.603,-1.33975 -276.603,98.6602 -286.603,98.6602 -286.603,-1.33975 -276.603,-1.33975 "/>
      </g>
    </g>
    <g id="ss[4]" >
      <g id="a" >
        <polygon points="-276.603,98.6602 -276.603,148.66 -286.603,148.66 -286.603,98.6602 -276.603,98.6602 "/>
      </g>
      <g id="b" >
        <polygon points="-277.942,143.66 -252.942,186.962 -261.603,191.962 -286.603,148.66 -277.942,143.66 "/>
      </g>
    </g>
</g>
</svg>
